<svg width="52" height="55" viewBox="0 0 52 55" fill="none" xmlns="http://www.w3.org/2000/svg">
<path d="M51.4591 0.300781L48.2008 1.38502C42.6166 3.32186 36.6534 3.91622 30.7958 3.1198C24.6406 2.16624 18.3405 3.01359 12.6576 5.55934C9.64496 6.83995 7.00101 8.85248 4.9665 11.4137C2.93199 13.9749 1.57155 17.0035 1.00904 20.2237C0.436836 23.3204 0.495369 26.5004 1.18114 29.5741C1.86691 32.6477 3.16587 35.552 5.00051 38.1136C4.83759 38.6828 4.67468 39.252 4.53891 39.8213C3.43607 44.5025 2.88925 49.2971 2.90974 54.1061H8.34032C8.59555 50.1699 9.13091 46.2567 9.94234 42.3963C13.7096 44.4271 17.9344 45.4628 22.2155 45.4051C26.2082 45.4023 30.1599 44.6005 33.8369 43.0469C54.5003 34.2374 51.785 4.9359 51.785 3.71613L51.4591 0.300781ZM31.719 38.0594C24.6321 41.0681 16.1604 40.5531 11.4086 36.8396C12.2117 34.1589 13.3138 31.5767 14.6941 29.1415C15.7672 27.3889 17.0331 25.7614 18.4684 24.2895C19.9349 22.8019 21.5866 21.5084 23.383 20.4405C27.095 18.2247 31.2118 16.7689 35.4932 16.1578V13.4472C30.5671 13.2769 25.6712 14.2804 21.2108 16.3746C16.6502 18.5961 12.7826 22.0166 10.0238 26.2683C9.0006 27.8921 8.09325 29.5859 7.30851 31.3371C6.05003 28.1233 5.6933 24.6277 6.2767 21.2266C6.65894 18.8454 7.64221 16.6006 9.13386 14.7037C10.6255 12.8068 12.5764 11.3203 14.8027 10.3842C18.0492 8.8694 21.5916 8.09179 25.1751 8.1073C26.8586 8.1073 28.5149 8.26993 30.2527 8.40546C35.695 9.10643 41.2207 8.78465 46.5445 7.45675C46.3544 14.938 44.9967 32.4213 31.719 38.0594Z" fill="#09BC8A"/>
</svg>
